<svg width="130" height="130" viewBox="0 0 130 130" fill="none" xmlns="http://www.w3.org/2000/svg">
<path d="M70 0C72.7614 0 75 2.23858 75 5V16C81.3834 17.2958 87.3234 19.8105 92.5713 23.2861L100.355 15.5029C102.308 13.5503 105.474 13.5503 107.427 15.5029L114.497 22.5732C116.45 24.5259 116.45 27.6919 114.497 29.6445L106.713 37.4277C110.189 42.6759 112.704 48.6161 114 55H125C127.761 55 130 57.2386 130 60V70C130 72.7614 127.761 75 125 75H114C112.704 81.3836 110.189 87.3233 106.713 92.5713L114.497 100.355C116.45 102.308 116.45 105.474 114.497 107.427L107.427 114.497C105.474 116.45 102.308 116.45 100.355 114.497L92.5713 106.713C87.3234 110.189 81.3835 112.703 75 113.999V125C75 127.761 72.7614 130 70 130H60C57.2386 130 55 127.761 55 125V113.999C48.6162 112.703 42.6758 110.189 37.4277 106.713L29.6445 114.497C27.6919 116.45 24.5259 116.45 22.5732 114.497L15.5029 107.427C13.5503 105.474 13.5503 102.308 15.5029 100.355L23.2861 92.5713C19.8105 87.3234 17.2958 81.3834 16 75H5C2.23858 75 0 72.7614 0 70V60C0 57.2386 2.23858 55 5 55H16C17.2958 48.6163 19.8103 42.6758 23.2861 37.4277L15.5029 29.6445C13.5503 27.6919 13.5503 24.5259 15.5029 22.5732L22.5732 15.5029C24.5259 13.5503 27.6919 13.5503 29.6445 15.5029L37.4277 23.2861C42.6758 19.8103 48.6163 17.2958 55 16V5C55 2.23858 57.2386 0 60 0H70ZM65 40C51.1929 40 40 51.1929 40 65C40 78.8071 51.1929 90 65 90C78.8071 90 90 78.8071 90 65C90 51.1929 78.8071 40 65 40Z" fill="#C8C8C8"/>
</svg>
